Coordinates
version=1
nRows=13
nColumns=38
inDegrees=no

Units are S.I. units (second, meters, Newtons, ...)
If the header above contains a line with 'inDegrees', this indicates whether rotational values are in degrees (yes) or radians (no).

endheader
time	pelvis_tilt	pelvis_list	pelvis_rotation	pelvis_tx	pelvis_ty	pelvis_tz	hip_flexion_r	hip_adduction_r	hip_rotation_r	knee_angle_r	ankle_angle_r	subtalar_angle_r	mtp_angle_r	hip_flexion_l	hip_adduction_l	hip_rotation_l	knee_angle_l	ankle_angle_l	subtalar_angle_l	mtp_angle_l	lumbar_extension	lumbar_bending	lumbar_rotation	arm_flex_r	arm_add_r	arm_rot_r	elbow_flex_r	pro_sup_r	wrist_flex_r	wrist_dev_r	arm_flex_l	arm_add_l	arm_rot_l	elbow_flex_l	pro_sup_l	wrist_flex_l	wrist_dev_l
1.05	2.98863	1.48241	-1.2541	0.693905	0.824728	0.927554	0.432748	-0.0753803	-0.359569	0.275724	0.124053	0	0	-0.343231	-0.000990442	-0.073629	0.379335	0.374434	0	0	-0.224467	-0.0331598	-0.207627	-0.0972729	-0.0601526	-0.161424	0.324199	1.38735	0	0	-0.13464	-0.488336	0.60926	0.777999	0.746758	0	0
1.06	2.96378	1.48438	-1.22099	0.693615	0.839508	0.926469	0.431453	-0.0754732	-0.359208	0.298833	0.120615	0	0	-0.337647	-0.0105146	-0.0684424	0.413598	0.366249	0	0	-0.218023	-0.0275842	-0.214411	-0.100448	-0.0637904	-0.16027	0.325079	1.3899	0	0	-0.142283	-0.482896	0.609189	0.774144	0.745249	0	0
1.07	2.91167	1.4876	-1.16077	0.693479	0.85444	0.925464	0.430748	-0.0730975	-0.360076	0.314087	0.103474	0	0	-0.326521	-0.0222789	-0.0651933	0.453534	0.354923	0	0	-0.208805	-0.0203102	-0.220246	-0.104652	-0.0673341	-0.159734	0.326452	1.39327	0	0	-0.15003	-0.476635	0.609697	0.768161	0.743266	0	0
1.08	2.83423	1.49014	-1.07868	0.693741	0.869393	0.924841	0.430975	-0.0678261	-0.359697	0.32549	0.0680068	0	0	-0.312747	-0.0351119	-0.0648643	0.496422	0.337809	0	0	-0.199171	-0.0116693	-0.221957	-0.108682	-0.0706965	-0.160823	0.328384	1.39606	0	0	-0.156738	-0.469586	0.611227	0.760517	0.741983	0	0
1.09	2.72365	1.49248	-0.968203	0.694423	0.884158	0.924626	0.436712	-0.0610991	-0.355691	0.344736	0.0338347	0	0	-0.293638	-0.0485053	-0.0683657	0.544645	0.313614	0	0	-0.188626	-0.00161806	-0.219178	-0.111666	-0.0741737	-0.161967	0.331116	1.39871	0	0	-0.162384	-0.461987	0.614731	0.751782	0.739416	0	0
1.1	2.5951	1.4942	-0.843362	0.695336	0.898581	0.924844	0.448633	-0.0549759	-0.348438	0.377421	0.0188509	0	0	-0.268607	-0.0611916	-0.0735611	0.599342	0.280352	0	0	-0.178433	0.00907685	-0.213598	-0.113098	-0.0779084	-0.16225	0.334954	1.40122	0	0	-0.167573	-0.4543	0.619284	0.743879	0.733647	0	0
1.11	2.47767	1.49502	-0.730501	0.696158	0.912762	0.925398	0.462429	-0.0508708	-0.34047	0.417748	0.018658	0	0	-0.239018	-0.0718888	-0.0765562	0.659785	0.236983	0	0	-0.169507	0.0191442	-0.208786	-0.113096	-0.0815994	-0.161239	0.339123	1.40361	0	0	-0.173947	-0.44743	0.624153	0.739455	0.721893	0	0
1.12	2.40331	1.49279	-0.659274	0.696704	0.926791	0.926411	0.468687	-0.046769	-0.33402	0.452689	0.0188088	0	0	-0.209529	-0.0815468	-0.0750964	0.723236	0.185168	0	0	-0.165279	0.0294238	-0.206751	-0.110903	-0.0853985	-0.156642	0.341554	1.40489	0	0	-0.181977	-0.441743	0.627162	0.740409	0.708515	0	0
1.13	2.35339	1.4896	-0.610728	0.697092	0.940633	0.92753	0.46942	-0.0427392	-0.330899	0.479921	0.0136024	0	0	-0.177781	-0.0907951	-0.0709429	0.789851	0.129616	0	0	-0.162953	0.0395293	-0.206782	-0.108275	-0.0887564	-0.151137	0.343558	1.4041	0	0	-0.190597	-0.437722	0.631255	0.744361	0.696538	0	0
1.14	2.32236	1.48552	-0.580745	0.69755	0.954248	0.928674	0.463655	-0.0372976	-0.331398	0.496978	0.00628878	0	0	-0.145115	-0.100126	-0.0665821	0.857258	0.0727926	0	0	-0.162602	0.0491879	-0.206927	-0.10593	-0.0913649	-0.147381	0.346686	1.40281	0	0	-0.198488	-0.435061	0.635917	0.750304	0.688345	0	0
1.15	2.2762	1.48292	-0.535667	0.698205	0.967599	0.929457	0.456843	-0.0316324	-0.336402	0.507576	0.00190123	0	0	-0.107671	-0.109228	-0.0618704	0.925404	0.0134438	0	0	-0.159843	0.0575171	-0.206646	-0.105208	-0.0934523	-0.143984	0.352051	1.40098	0	0	-0.205897	-0.434193	0.642801	0.758081	0.679133	0	0
1.16	2.22313	1.48166	-0.484566	0.699014	0.98073	0.930022	0.448789	-0.0259459	-0.343166	0.512813	0.00270216	0	0	-0.0680081	-0.117435	-0.0585507	0.990662	-0.0477703	0	0	-0.155306	0.0640881	-0.204826	-0.106089	-0.0955835	-0.140698	0.359958	1.39831	0	0	-0.212137	-0.434356	0.651551	0.764266	0.67324	0	0
1.17	2.17549	1.48171	-0.439638	0.699828	0.993607	0.930643	0.439301	-0.0207013	-0.348305	0.51448	0.00889884	0	0	-0.0286341	-0.123579	-0.0563437	1.04986	-0.111558	0	0	-0.150353	0.0686208	-0.201442	-0.107879	-0.0981365	-0.137199	0.369471	1.39577	0	0	-0.216031	-0.43481	0.66256	0.767354	0.671676	0	0
